<mxfile host="Electron" agent="Mozilla/5.0 (Windows NT 10.0; Win64; x64) AppleWebKit/537.36 (KHTML, like Gecko) draw.io/24.7.17 Chrome/128.0.6613.36 Electron/32.0.1 Safari/537.36" version="24.7.17">
  <diagram name="Pageâ€” 1" id="SY95RuzFTjrTKX68WHdJ">
    <mxGraphModel dx="714" dy="423" grid="1" gridSize="10" guides="1" tooltips="1" connect="1" arrows="1" fold="1" page="1" pageScale="1" pageWidth="827" pageHeight="1169" math="0" shadow="0">
      <root>
        <mxCell id="0" />
        <mxCell id="1" parent="0" />
        <object label="DishType" DyshType="" id="JfXKXvV37pvzRZSKovYg-7">
          <mxCell style="swimlane;fontStyle=0;childLayout=stackLayout;horizontal=1;startSize=30;horizontalStack=0;resizeParent=1;resizeParentMax=0;resizeLast=0;collapsible=1;marginBottom=0;whiteSpace=wrap;html=1;" vertex="1" parent="1">
            <mxGeometry x="220" y="110" width="140" height="60" as="geometry" />
          </mxCell>
        </object>
        <mxCell id="JfXKXvV37pvzRZSKovYg-9" value="name: str" style="text;strokeColor=none;fillColor=none;align=left;verticalAlign=middle;spacingLeft=4;spacingRight=4;overflow=hidden;points=[[0,0.5],[1,0.5]];portConstraint=eastwest;rotatable=0;whiteSpace=wrap;html=1;" vertex="1" parent="JfXKXvV37pvzRZSKovYg-7">
          <mxGeometry y="30" width="140" height="30" as="geometry" />
        </mxCell>
        <mxCell id="JfXKXvV37pvzRZSKovYg-15" value="Dish" style="swimlane;fontStyle=0;childLayout=stackLayout;horizontal=1;startSize=30;horizontalStack=0;resizeParent=1;resizeParentMax=0;resizeLast=0;collapsible=1;marginBottom=0;whiteSpace=wrap;html=1;" vertex="1" parent="1">
          <mxGeometry x="480" y="160" width="170" height="210" as="geometry" />
        </mxCell>
        <mxCell id="JfXKXvV37pvzRZSKovYg-16" value="name: str" style="text;strokeColor=none;fillColor=none;align=left;verticalAlign=middle;spacingLeft=4;spacingRight=4;overflow=hidden;points=[[0,0.5],[1,0.5]];portConstraint=eastwest;rotatable=0;whiteSpace=wrap;html=1;" vertex="1" parent="JfXKXvV37pvzRZSKovYg-15">
          <mxGeometry y="30" width="170" height="30" as="geometry" />
        </mxCell>
        <mxCell id="JfXKXvV37pvzRZSKovYg-18" value="description: text" style="text;strokeColor=none;fillColor=none;align=left;verticalAlign=middle;spacingLeft=4;spacingRight=4;overflow=hidden;points=[[0,0.5],[1,0.5]];portConstraint=eastwest;rotatable=0;whiteSpace=wrap;html=1;" vertex="1" parent="JfXKXvV37pvzRZSKovYg-15">
          <mxGeometry y="60" width="170" height="30" as="geometry" />
        </mxCell>
        <mxCell id="JfXKXvV37pvzRZSKovYg-20" value="price: decimal" style="text;strokeColor=none;fillColor=none;align=left;verticalAlign=middle;spacingLeft=4;spacingRight=4;overflow=hidden;points=[[0,0.5],[1,0.5]];portConstraint=eastwest;rotatable=0;whiteSpace=wrap;html=1;" vertex="1" parent="JfXKXvV37pvzRZSKovYg-15">
          <mxGeometry y="90" width="170" height="30" as="geometry" />
        </mxCell>
        <mxCell id="JfXKXvV37pvzRZSKovYg-23" value="dish_type: DishType" style="text;strokeColor=none;fillColor=none;align=left;verticalAlign=middle;spacingLeft=4;spacingRight=4;overflow=hidden;points=[[0,0.5],[1,0.5]];portConstraint=eastwest;rotatable=0;whiteSpace=wrap;html=1;" vertex="1" parent="JfXKXvV37pvzRZSKovYg-15">
          <mxGeometry y="120" width="170" height="30" as="geometry" />
        </mxCell>
        <mxCell id="JfXKXvV37pvzRZSKovYg-21" value="cooks: list[Cook]" style="text;strokeColor=none;fillColor=none;align=left;verticalAlign=middle;spacingLeft=4;spacingRight=4;overflow=hidden;points=[[0,0.5],[1,0.5]];portConstraint=eastwest;rotatable=0;whiteSpace=wrap;html=1;" vertex="1" parent="JfXKXvV37pvzRZSKovYg-15">
          <mxGeometry y="150" width="170" height="30" as="geometry" />
        </mxCell>
        <mxCell id="JfXKXvV37pvzRZSKovYg-19" value="ingredients: list[Ingredient]" style="text;strokeColor=none;fillColor=none;align=left;verticalAlign=middle;spacingLeft=4;spacingRight=4;overflow=hidden;points=[[0,0.5],[1,0.5]];portConstraint=eastwest;rotatable=0;whiteSpace=wrap;html=1;" vertex="1" parent="JfXKXvV37pvzRZSKovYg-15">
          <mxGeometry y="180" width="170" height="30" as="geometry" />
        </mxCell>
        <object label="Ingredient" DyshType="" id="JfXKXvV37pvzRZSKovYg-26">
          <mxCell style="swimlane;fontStyle=0;childLayout=stackLayout;horizontal=1;startSize=30;horizontalStack=0;resizeParent=1;resizeParentMax=0;resizeLast=0;collapsible=1;marginBottom=0;whiteSpace=wrap;html=1;" vertex="1" parent="1">
            <mxGeometry x="440" y="440" width="140" height="60" as="geometry" />
          </mxCell>
        </object>
        <mxCell id="JfXKXvV37pvzRZSKovYg-27" value="name: str" style="text;strokeColor=none;fillColor=none;align=left;verticalAlign=middle;spacingLeft=4;spacingRight=4;overflow=hidden;points=[[0,0.5],[1,0.5]];portConstraint=eastwest;rotatable=0;whiteSpace=wrap;html=1;" vertex="1" parent="JfXKXvV37pvzRZSKovYg-26">
          <mxGeometry y="30" width="140" height="30" as="geometry" />
        </mxCell>
        <mxCell id="JfXKXvV37pvzRZSKovYg-28" value="Cook(AbstractUser)" style="swimlane;fontStyle=0;childLayout=stackLayout;horizontal=1;startSize=30;horizontalStack=0;resizeParent=1;resizeParentMax=0;resizeLast=0;collapsible=1;marginBottom=0;whiteSpace=wrap;html=1;" vertex="1" parent="1">
          <mxGeometry x="160" y="310" width="160" height="180" as="geometry" />
        </mxCell>
        <mxCell id="JfXKXvV37pvzRZSKovYg-29" value="years_of_experience: int" style="text;strokeColor=none;fillColor=none;align=left;verticalAlign=middle;spacingLeft=4;spacingRight=4;overflow=hidden;points=[[0,0.5],[1,0.5]];portConstraint=eastwest;rotatable=0;whiteSpace=wrap;html=1;" vertex="1" parent="JfXKXvV37pvzRZSKovYg-28">
          <mxGeometry y="30" width="160" height="30" as="geometry" />
        </mxCell>
        <mxCell id="JfXKXvV37pvzRZSKovYg-30" value="username: str" style="text;strokeColor=none;fillColor=none;align=left;verticalAlign=middle;spacingLeft=4;spacingRight=4;overflow=hidden;points=[[0,0.5],[1,0.5]];portConstraint=eastwest;rotatable=0;whiteSpace=wrap;html=1;" vertex="1" parent="JfXKXvV37pvzRZSKovYg-28">
          <mxGeometry y="60" width="160" height="30" as="geometry" />
        </mxCell>
        <mxCell id="JfXKXvV37pvzRZSKovYg-31" value="email: str" style="text;strokeColor=none;fillColor=none;align=left;verticalAlign=middle;spacingLeft=4;spacingRight=4;overflow=hidden;points=[[0,0.5],[1,0.5]];portConstraint=eastwest;rotatable=0;whiteSpace=wrap;html=1;" vertex="1" parent="JfXKXvV37pvzRZSKovYg-28">
          <mxGeometry y="90" width="160" height="30" as="geometry" />
        </mxCell>
        <mxCell id="JfXKXvV37pvzRZSKovYg-33" value="first_name: str" style="text;strokeColor=none;fillColor=none;align=left;verticalAlign=middle;spacingLeft=4;spacingRight=4;overflow=hidden;points=[[0,0.5],[1,0.5]];portConstraint=eastwest;rotatable=0;whiteSpace=wrap;html=1;" vertex="1" parent="JfXKXvV37pvzRZSKovYg-28">
          <mxGeometry y="120" width="160" height="30" as="geometry" />
        </mxCell>
        <mxCell id="JfXKXvV37pvzRZSKovYg-34" value="last_name: str" style="text;strokeColor=none;fillColor=none;align=left;verticalAlign=middle;spacingLeft=4;spacingRight=4;overflow=hidden;points=[[0,0.5],[1,0.5]];portConstraint=eastwest;rotatable=0;whiteSpace=wrap;html=1;" vertex="1" parent="JfXKXvV37pvzRZSKovYg-28">
          <mxGeometry y="150" width="160" height="30" as="geometry" />
        </mxCell>
        <mxCell id="JfXKXvV37pvzRZSKovYg-36" value="" style="strokeWidth=2;html=1;shape=mxgraph.flowchart.decision;whiteSpace=wrap;labelBackgroundColor=#333333;fillColor=#2E2E2E;" vertex="1" parent="1">
          <mxGeometry x="360" y="135" width="10" height="10" as="geometry" />
        </mxCell>
        <mxCell id="JfXKXvV37pvzRZSKovYg-42" value="" style="endArrow=none;html=1;rounded=0;entryX=-0.004;entryY=0.639;entryDx=0;entryDy=0;entryPerimeter=0;" edge="1" parent="1" target="JfXKXvV37pvzRZSKovYg-23">
          <mxGeometry width="50" height="50" relative="1" as="geometry">
            <mxPoint x="440" y="300" as="sourcePoint" />
            <mxPoint x="430" y="220" as="targetPoint" />
          </mxGeometry>
        </mxCell>
        <mxCell id="JfXKXvV37pvzRZSKovYg-43" value="" style="endArrow=none;html=1;rounded=0;" edge="1" parent="1">
          <mxGeometry width="50" height="50" relative="1" as="geometry">
            <mxPoint x="440" y="300" as="sourcePoint" />
            <mxPoint x="440" y="140" as="targetPoint" />
          </mxGeometry>
        </mxCell>
        <mxCell id="JfXKXvV37pvzRZSKovYg-44" value="" style="endArrow=none;html=1;rounded=0;exitX=1;exitY=0.5;exitDx=0;exitDy=0;exitPerimeter=0;" edge="1" parent="1" source="JfXKXvV37pvzRZSKovYg-36">
          <mxGeometry width="50" height="50" relative="1" as="geometry">
            <mxPoint x="380" y="210" as="sourcePoint" />
            <mxPoint x="440" y="140" as="targetPoint" />
          </mxGeometry>
        </mxCell>
        <mxCell id="JfXKXvV37pvzRZSKovYg-47" value="" style="endArrow=classic;startArrow=classic;html=1;rounded=0;exitX=0.991;exitY=0.105;exitDx=0;exitDy=0;exitPerimeter=0;entryX=0;entryY=0.648;entryDx=0;entryDy=0;entryPerimeter=0;" edge="1" parent="1" source="JfXKXvV37pvzRZSKovYg-28" target="JfXKXvV37pvzRZSKovYg-21">
          <mxGeometry width="50" height="50" relative="1" as="geometry">
            <mxPoint x="380" y="390" as="sourcePoint" />
            <mxPoint x="430" y="340" as="targetPoint" />
          </mxGeometry>
        </mxCell>
        <mxCell id="JfXKXvV37pvzRZSKovYg-48" value="" style="endArrow=classic;startArrow=classic;html=1;rounded=0;entryX=0;entryY=0.667;entryDx=0;entryDy=0;entryPerimeter=0;exitX=0.071;exitY=0;exitDx=0;exitDy=0;exitPerimeter=0;" edge="1" parent="1" source="JfXKXvV37pvzRZSKovYg-26" target="JfXKXvV37pvzRZSKovYg-19">
          <mxGeometry width="50" height="50" relative="1" as="geometry">
            <mxPoint x="380" y="390" as="sourcePoint" />
            <mxPoint x="430" y="340" as="targetPoint" />
            <Array as="points">
              <mxPoint x="450" y="360" />
            </Array>
          </mxGeometry>
        </mxCell>
      </root>
    </mxGraphModel>
  </diagram>
</mxfile>
